<svg class="logo__image" viewBox="0 0 148 64">
<g fill="none" fill-rule="evenodd"><path d="M121.5 47.135l-.41 1.768c-.865 3.76-3.585 7.14-7.116 8.832-1.807.89-3.848 1.322-5.885 1.314v4.574l.07.002c2.7 0 5.394-.601 7.832-1.8a17.805 17.805 0 009.062-10.138h22.401v-4.552H121.5z" fill="#00537F"></path><path d="M108.089 59.05c-.154 0-.308.001-.463-.004a13.31 13.31 0 01-2.111-.247c-.122-.024-.242-.051-.363-.078-.156-.035-.313-.07-.47-.11-.28-.075-.559-.16-.833-.254-.091-.03-.182-.065-.274-.099-.224-.08-.444-.17-.664-.262-.095-.041-.19-.08-.286-.124l-.026-.01-1.941 4.12c.022.01.045.023.068.032.108.051.218.094.326.141.344.149.692.289 1.044.416l.189.067c.431.15.87.283 1.314.399.048.011.094.021.142.034.433.11.87.204 1.312.282.026.003.051.01.076.013.467.08.937.139 1.409.18l.121.01c.474.04.951.067 1.43.067v-4.574z" fill="#003A57"></path><path d="M102.625 57.872a13.25 13.25 0 01-2.75-1.678 13.117 13.117 0 01-4.66-7.296l-.41-1.763h-25.58v4.552h22.03a17.725 17.725 0 005.76 8.066 17.7 17.7 0 003.643 2.228l1.942-4.119c.007.004.018.008.025.01" fill="#0061A1"></path><path fill="#00537F" d="M63.28 51.687h5.946v-4.552H63.28z"></path><path fill="#0098BA" d="M35.966 51.687H63.28v-4.552H35.966z"></path><path fill="#0070BA" d="M30.021 51.687h5.945v-4.552h-5.945z"></path><path fill="#86D0F4" d="M0 51.687h30.021v-4.552H0z"></path><path d="M115.847 32.32h-13.132a3.922 3.922 0 01-3.917-3.918v-.11a3.922 3.922 0 013.917-3.919h12.016V19.82h-12.016c-4.011 0-7.374 2.809-8.245 6.56-.87-3.751-4.231-6.56-8.243-6.56H71.299c-4.011 0-7.374 2.81-8.243 6.562-.87-3.753-4.232-6.562-8.245-6.562H39.883c-4.011 0-7.373 2.809-8.243 6.56-.869-3.751-4.23-6.56-8.244-6.56H11.38v4.553h12.015a3.922 3.922 0 013.917 3.918v5.822a3.926 3.926 0 01-3.917 3.92H8.469c-1.04 0-2.022-.41-2.766-1.153a3.892 3.892 0 01-1.151-2.766V0H0v34.114c0 2.256.882 4.382 2.485 5.984a8.41 8.41 0 005.983 2.485H23.396c4.013 0 7.374-2.808 8.244-6.56.87 3.752 4.232 6.56 8.243 6.56H51.9V38.03H39.883a3.921 3.921 0 01-3.916-3.917v-5.822a3.922 3.922 0 013.916-3.918h14.928a3.923 3.923 0 013.918 3.918v14.291h4.55v-5.765c1.132 3.346 4.297 5.765 8.02 5.765h12.016V38.03H71.3a3.922 3.922 0 01-3.917-3.917v-5.822a3.922 3.922 0 013.917-3.918h14.928a3.923 3.923 0 013.917 3.918v14.291h4.553V31.107c1.132 3.347 4.295 5.764 8.018 5.764h13.132a5.72 5.72 0 015.713 5.711h4.55c0-5.66-4.603-10.263-10.263-10.263" fill="#333"></path></g></svg>